<?xml version='1.0' encoding='utf-8'?>
<svg width="34.142925mm" height="37.7mm" viewBox="-7.054862 57.601806 34.142925 37.7" version="1.1" xmlns="http://www.w3.org/2000/svg">
  <g transform="scale(1,-1)" stroke-linecap="round">
    <g fill="rgb(199,199,199)" stroke="rgb(119,119,119)" stroke-width="0.3" id="rev1">
      <path d="M 2.295138,-65.151806 A 2.0,2.0 -90.0 0,1 0.295138,-67.151806 L 0.295138,-73.801806 L -1.704862,-73.801806 L -1.704862,-62.951806 L 21.738063,-62.951806 L 21.738063,-65.151806 L 2.295138,-65.151806" />
      <path d="M -1.704862,-79.101806 L 0.295138,-79.101806 L 0.295138,-85.751806 A 2.0,2.0 90.0 0,1 2.295138,-87.751806 L 21.738063,-87.751806 L 21.738063,-89.951806 L -1.704862,-89.951806 L -1.704862,-79.101806" />
    </g>
    <g fill="none" stroke="rgb(238,107,0)" stroke-width="0.7" id="rev2">
      <path d="M 18.995315,-89.951806 L -1.704862,-89.951806 L -1.704862,-62.951806 L 18.995315,-62.951806 L 18.995315,-73.451806 L 14.295138,-73.451806 A 5.0,5.0 -90.0 1,1 14.295138,-79.451806 L 18.995315,-79.451806 L 18.995315,-89.951806" />
    </g>
  </g>
</svg>